<svg width="9" height="9" viewBox="0 0 9 9" fill="none" xmlns="http://www.w3.org/2000/svg">
<path fill-rule="evenodd" clip-rule="evenodd" d="M8.7819 1.03141C8.83535 0.978031 8.87776 0.914644 8.90671 0.844871C8.93566 0.775099 8.95059 0.700307 8.95063 0.624767C8.95068 0.549226 8.93585 0.474416 8.90698 0.404608C8.87812 0.3348 8.83578 0.271361 8.7824 0.217913C8.72902 0.164465 8.66563 0.122055 8.59586 0.0931039C8.52609 0.0641529 8.4513 0.0492281 8.37576 0.0491817C8.30021 0.0491353 8.2254 0.0639681 8.1556 0.0928333C8.08579 0.121698 8.02235 0.164031 7.9689 0.217413L4.4999 3.68641L1.0319 0.217413C0.923958 0.10947 0.777556 0.0488281 0.624901 0.0488281C0.472247 0.0488281 0.325844 0.10947 0.217901 0.217413C0.109958 0.325356 0.0493164 0.471758 0.0493164 0.624413C0.0493164 0.777068 0.109958 0.92347 0.217901 1.03141L3.6869 4.49941L0.217901 7.96741C0.164453 8.02086 0.122056 8.08431 0.0931301 8.15415C0.0642043 8.22398 0.0493164 8.29883 0.0493164 8.37441C0.0493164 8.45 0.0642043 8.52485 0.0931301 8.59468C0.122056 8.66451 0.164453 8.72796 0.217901 8.78141C0.325844 8.88936 0.472247 8.95 0.624901 8.95C0.700488 8.95 0.775335 8.93511 0.845168 8.90618C0.915001 8.87726 0.978453 8.83486 1.0319 8.78141L4.4999 5.31241L7.9689 8.78141C8.07684 8.88922 8.22319 8.94974 8.37576 8.94964C8.52832 8.94955 8.67459 8.88886 8.7824 8.78091C8.89021 8.67297 8.95073 8.52662 8.95063 8.37406C8.95054 8.2215 8.88984 8.07522 8.7819 7.96741L5.3129 4.49941L8.7819 1.03141Z" fill="black"/>
</svg>
