<svg width="14" height="15" viewBox="0 0 14 15" fill="none" xmlns="http://www.w3.org/2000/svg">
<path d="M13.5325 12.9675L10.9825 10.425C11.8052 9.37684 12.2517 8.08249 12.25 6.75C12.25 5.56331 11.8981 4.40328 11.2388 3.41658C10.5795 2.42989 9.64246 1.66085 8.5461 1.20673C7.44975 0.7526 6.24335 0.63378 5.07946 0.865291C3.91558 1.0968 2.84648 1.66825 2.00736 2.50736C1.16825 3.34648 0.596802 4.41558 0.365291 5.57946C0.13378 6.74335 0.2526 7.94975 0.706725 9.0461C1.16085 10.1425 1.92989 11.0795 2.91658 11.7388C3.90328 12.3981 5.06331 12.75 6.25 12.75C7.58249 12.7517 8.87684 12.3052 9.925 11.4825L12.4675 14.0325C12.5372 14.1028 12.6202 14.1586 12.7116 14.1967C12.803 14.2347 12.901 14.2544 13 14.2544C13.099 14.2544 13.197 14.2347 13.2884 14.1967C13.3798 14.1586 13.4628 14.1028 13.5325 14.0325C13.6028 13.9628 13.6586 13.8798 13.6967 13.7884C13.7347 13.697 13.7544 13.599 13.7544 13.5C13.7544 13.401 13.7347 13.303 13.6967 13.2116C13.6586 13.1202 13.6028 13.0372 13.5325 12.9675ZM1.75 6.75C1.75 5.85999 2.01392 4.98996 2.50839 4.24994C3.00286 3.50992 3.70566 2.93314 4.52793 2.59254C5.35019 2.25195 6.25499 2.16284 7.12791 2.33647C8.00082 2.5101 8.80265 2.93869 9.43198 3.56802C10.0613 4.19736 10.4899 4.99918 10.6635 5.8721C10.8372 6.74501 10.7481 7.64981 10.4075 8.47208C10.0669 9.29435 9.49009 9.99715 8.75007 10.4916C8.01005 10.9861 7.14002 11.25 6.25 11.25C5.05653 11.25 3.91194 10.7759 3.06802 9.93198C2.22411 9.08807 1.75 7.94348 1.75 6.75Z" fill="#BEBEC7"/>
</svg>
