
<svg width="102" height="13" viewBox="0 0 102 13" fill="none" xmlns="http://www.w3.org/2000/svg">
<path d="M0.278409 12V0.363636H4.53977C5.36553 0.363636 6.04924 0.5 6.59091 0.772727C7.13258 1.04167 7.53788 1.4072 7.80682 1.86932C8.07576 2.32765 8.21023 2.8447 8.21023 3.42045C8.21023 3.9053 8.12121 4.31439 7.94318 4.64773C7.76515 4.97727 7.52652 5.24242 7.22727 5.44318C6.93182 5.64015 6.60606 5.78409 6.25 5.875V5.98864C6.63636 6.00758 7.01326 6.13258 7.38068 6.36364C7.75189 6.59091 8.05871 6.91477 8.30114 7.33523C8.54356 7.75568 8.66477 8.26705 8.66477 8.86932C8.66477 9.46402 8.52462 9.99811 8.24432 10.4716C7.9678 10.9413 7.53977 11.3144 6.96023 11.5909C6.38068 11.8636 5.64015 12 4.73864 12H0.278409ZM2.03409 10.4943H4.56818C5.40909 10.4943 6.01136 10.3314 6.375 10.0057C6.73864 9.67992 6.92045 9.27273 6.92045 8.78409C6.92045 8.41667 6.82765 8.07955 6.64205 7.77273C6.45644 7.46591 6.19129 7.22159 5.84659 7.03977C5.50568 6.85795 5.10038 6.76705 4.63068 6.76705H2.03409V10.4943ZM2.03409 5.39773H4.38636C4.7803 5.39773 5.13447 5.32197 5.44886 5.17045C5.76705 5.01894 6.01894 4.80682 6.20455 4.53409C6.39394 4.25758 6.48864 3.93182 6.48864 3.55682C6.48864 3.07576 6.32008 2.67235 5.98295 2.34659C5.64583 2.02083 5.12879 1.85795 4.43182 1.85795H2.03409V5.39773ZM11.7301 12H9.86648L14.054 0.363636H16.0824L20.2699 12H18.4062L15.1165 2.47727H15.0256L11.7301 12ZM12.0426 7.44318H18.0881V8.92045H12.0426V7.44318ZM21.9503 12V0.363636H23.706V10.4886H28.9787V12H21.9503ZM28.892 1.875V0.363636H37.8977V1.875H34.267V12H32.517V1.875H28.892ZM41.6435 0.363636V12H39.8878V0.363636H41.6435ZM53.8651 4.14773H52.0923C52.0241 3.76894 51.8973 3.43561 51.7116 3.14773C51.526 2.85985 51.2988 2.61553 51.0298 2.41477C50.7609 2.21401 50.4598 2.0625 50.1264 1.96023C49.7969 1.85795 49.4465 1.80682 49.0753 1.80682C48.4048 1.80682 47.8045 1.97538 47.2741 2.3125C46.7476 2.64962 46.331 3.14394 46.0241 3.79545C45.7211 4.44697 45.5696 5.24242 45.5696 6.18182C45.5696 7.12879 45.7211 7.92803 46.0241 8.57955C46.331 9.23106 46.7495 9.72348 47.2798 10.0568C47.8101 10.3902 48.4067 10.5568 49.0696 10.5568C49.437 10.5568 49.7855 10.5076 50.1151 10.4091C50.4484 10.3068 50.7495 10.1572 51.0185 9.96023C51.2874 9.76326 51.5147 9.52273 51.7003 9.23864C51.8897 8.95076 52.0204 8.62121 52.0923 8.25L53.8651 8.25568C53.7704 8.82765 53.5866 9.35417 53.3139 9.83523C53.045 10.3125 52.6984 10.7254 52.2741 11.0739C51.8537 11.4186 51.3726 11.6856 50.831 11.875C50.2893 12.0644 49.6984 12.1591 49.0582 12.1591C48.0507 12.1591 47.1529 11.9205 46.3651 11.4432C45.5772 10.9621 44.956 10.2746 44.5014 9.38068C44.0507 8.48674 43.8253 7.42045 43.8253 6.18182C43.8253 4.93939 44.0526 3.87311 44.5071 2.98295C44.9616 2.08901 45.5829 1.40341 46.3707 0.926136C47.1586 0.445075 48.0545 0.204545 49.0582 0.204545C49.6757 0.204545 50.2514 0.29356 50.7855 0.471591C51.3234 0.645833 51.8063 0.903409 52.2344 1.24432C52.6624 1.58144 53.0166 1.99432 53.2969 2.48295C53.5772 2.9678 53.7666 3.52273 53.8651 4.14773ZM55.9659 12V0.363636H57.7216V5.42045H63.5227V0.363636H65.2841V12H63.5227V6.92614H57.7216V12H55.9659ZM77.9489 6.18182C77.9489 7.42424 77.7216 8.49242 77.267 9.38636C76.8125 10.2765 76.1894 10.9621 75.3977 11.4432C74.6098 11.9205 73.714 12.1591 72.7102 12.1591C71.7027 12.1591 70.803 11.9205 70.0114 11.4432C69.2235 10.9621 68.6023 10.2746 68.1477 9.38068C67.6932 8.48674 67.4659 7.42045 67.4659 6.18182C67.4659 4.93939 67.6932 3.87311 68.1477 2.98295C68.6023 2.08901 69.2235 1.40341 70.0114 0.926136C70.803 0.445075 71.7027 0.204545 72.7102 0.204545C73.714 0.204545 74.6098 0.445075 75.3977 0.926136C76.1894 1.40341 76.8125 2.08901 77.267 2.98295C77.7216 3.87311 77.9489 4.93939 77.9489 6.18182ZM76.2102 6.18182C76.2102 5.23485 76.0568 4.4375 75.75 3.78977C75.447 3.13826 75.0303 2.64583 74.5 2.3125C73.9735 1.97538 73.3769 1.80682 72.7102 1.80682C72.0398 1.80682 71.4413 1.97538 70.9148 2.3125C70.3883 2.64583 69.9716 3.13826 69.6648 3.78977C69.3617 4.4375 69.2102 5.23485 69.2102 6.18182C69.2102 7.12879 69.3617 7.92803 69.6648 8.57955C69.9716 9.22727 70.3883 9.7197 70.9148 10.0568C71.4413 10.3902 72.0398 10.5568 72.7102 10.5568C73.3769 10.5568 73.9735 10.3902 74.5 10.0568C75.0303 9.7197 75.447 9.22727 75.75 8.57955C76.0568 7.92803 76.2102 7.12879 76.2102 6.18182ZM80.1378 0.363636H82.2685L85.973 9.40909H86.1094L89.8139 0.363636H91.9446V12H90.2741V3.57955H90.1662L86.7344 11.983H85.348L81.9162 3.57386H81.8082V12H80.1378V0.363636ZM94.4972 12V0.363636H101.793V1.875H96.2528V5.42045H101.412V6.92614H96.2528V10.4886H101.861V12H94.4972Z" fill="black"/>
</svg>
