<svg width="5" height="9" viewBox="0 0 5 9" fill="none" xmlns="http://www.w3.org/2000/svg">
<path d="M0.833383 8.58314C0.697086 8.5834 0.564999 8.53593 0.46005 8.44897C0.400983 8.4 0.352157 8.33986 0.316368 8.27199C0.280579 8.20412 0.258531 8.12986 0.251487 8.05345C0.244443 7.97705 0.252541 7.90001 0.275317 7.82674C0.298093 7.75347 0.335099 7.68541 0.384217 7.62647L2.99755 4.4998L0.47755 1.3673C0.429095 1.30763 0.39291 1.23898 0.371075 1.16528C0.34924 1.09158 0.342185 1.0143 0.350316 0.937863C0.358447 0.86143 0.381604 0.787357 0.418455 0.719902C0.455307 0.652448 0.505126 0.592941 0.56505 0.544803C0.625405 0.491698 0.696085 0.451642 0.772655 0.427148C0.849225 0.402655 0.930031 0.394252 1.01 0.402469C1.08997 0.410685 1.16738 0.435342 1.23737 0.474893C1.30736 0.514444 1.36842 0.568035 1.41672 0.632303L4.23422 4.1323C4.32001 4.23668 4.36692 4.3676 4.36692 4.50272C4.36692 4.63783 4.32001 4.76876 4.23422 4.87314L1.31755 8.37314C1.25903 8.44373 1.1847 8.49953 1.10057 8.53602C1.01645 8.57251 0.924912 8.58865 0.833383 8.58314Z" fill="#BEBEC7"/>
</svg>
