<svg width="22" height="40" viewBox="0 0 22 40" fill="none" xmlns="http://www.w3.org/2000/svg">
<path d="M0.975292 0.874077C0.680917 1.17546 0.516113 1.58004 0.516113 2.00133C0.516113 2.42262 0.680917 2.8272 0.975292 3.12858L17.4217 20.0002L0.975292 36.8685C0.680917 37.1698 0.516113 37.5744 0.516113 37.9957C0.516113 38.417 0.680917 38.8216 0.975292 39.123C1.11838 39.2699 1.28946 39.3867 1.47843 39.4665C1.6674 39.5462 1.87043 39.5873 2.07554 39.5873C2.28065 39.5873 2.48369 39.5462 2.67266 39.4665C2.86163 39.3867 3.03271 39.2699 3.17579 39.123L20.665 21.1781C20.9722 20.8629 21.1441 20.4403 21.1441 20.0002C21.1441 19.5601 20.9722 19.1375 20.665 18.8223L3.17579 0.877453C3.03271 0.730494 2.86163 0.613689 2.67266 0.533933C2.48369 0.454177 2.28065 0.413086 2.07554 0.413086C1.87043 0.413086 1.6674 0.454177 1.47843 0.533933C1.28946 0.613689 1.11838 0.730494 0.975292 0.877453V0.874077Z" fill="white"/>
</svg>
