<svg width="21" height="40" viewBox="0 0 21 40" fill="none" xmlns="http://www.w3.org/2000/svg">
<path d="M18.1368 0.877453L0.647542 18.819C0.34037 19.1341 0.168457 19.5568 0.168457 19.9968C0.168457 20.4369 0.34037 20.8596 0.647542 21.1747L18.1368 39.123C18.2799 39.2699 18.451 39.3867 18.6399 39.4665C18.8289 39.5462 19.0319 39.5873 19.237 39.5873C19.4422 39.5873 19.6452 39.5462 19.8342 39.4665C20.0231 39.3867 20.1942 39.2699 20.3373 39.123C20.6317 38.8216 20.7965 38.417 20.7965 37.9957C20.7965 37.5744 20.6317 37.1698 20.3373 36.8685L3.89092 19.9968L20.3373 3.12858C20.6307 2.82735 20.7948 2.42349 20.7948 2.00301C20.7948 1.58254 20.6307 1.17868 20.3373 0.877453C20.1942 0.730494 20.0231 0.613689 19.8342 0.533933C19.6452 0.454177 19.4422 0.413086 19.237 0.413086C19.0319 0.413086 18.8289 0.454177 18.6399 0.533933C18.451 0.613689 18.2799 0.730494 18.1368 0.877453Z" fill="white"/>
</svg>
