<svg width="21" height="21" viewBox="0 0 21 21" fill="none" xmlns="http://www.w3.org/2000/svg">
<rect x="0.570923" y="0.5" width="20" height="20" rx="6" fill="black"/>
<path fill-rule="evenodd" clip-rule="evenodd" d="M5.09764 10.394C8.01285 9.12386 9.95677 8.28653 10.9294 7.88197C13.7065 6.72688 14.2836 6.52623 14.6597 6.5196C14.7424 6.51814 14.9274 6.53865 15.0472 6.63587C15.1484 6.71796 15.1762 6.82885 15.1895 6.90668C15.2029 6.98451 15.2194 7.16181 15.2063 7.30034C15.0558 8.88158 14.4046 12.7188 14.0733 14.4898C13.9331 15.2392 13.6571 15.4905 13.3899 15.5151C12.8092 15.5685 12.3682 15.1313 11.8057 14.7626C10.9256 14.1857 10.4284 13.8265 9.57408 13.2635C8.58676 12.6129 9.2268 12.2553 9.78947 11.6709C9.93672 11.518 12.4954 9.19066 12.5449 8.97954C12.5511 8.95313 12.5568 8.85471 12.4984 8.80274C12.4399 8.75077 12.3536 8.76854 12.2913 8.78267C12.2031 8.80271 10.797 9.73203 8.07327 11.5706C7.67417 11.8447 7.31269 11.9782 6.98881 11.9712C6.63175 11.9635 5.94493 11.7693 5.43435 11.6034C4.8081 11.3998 4.31036 11.2922 4.35371 10.9465C4.37628 10.7664 4.62426 10.5822 5.09764 10.394Z" fill="white"/>
</svg>
